name GIL04_free3EmgEnv.mot
datacolumns 51
datarows 11
range 0.86296284 0.87222213
endheader
                time	   rect_fem_l_emgRec	   rect_fem_l_emgEnv	   rect_fem_l_emgAve	   rect_fem_l_emgSDp	   rect_fem_l_emgSDm	   rect_fem_r_emgRec	   rect_fem_r_emgEnv	   rect_fem_r_emgAve	   rect_fem_r_emgSDp	   rect_fem_r_emgSDm	   med_hams_l_emgRec	   med_hams_l_emgEnv	   med_hams_l_emgAve	   med_hams_l_emgSDp	   med_hams_l_emgSDm	   med_hams_r_emgRec	   med_hams_r_emgEnv	   med_hams_r_emgAve	   med_hams_r_emgSDp	   med_hams_r_emgSDm	   lat_hams_l_emgRec	   lat_hams_l_emgEnv	   lat_hams_l_emgAve	   lat_hams_l_emgSDp	   lat_hams_l_emgSDm	   lat_hams_r_emgRec	   lat_hams_r_emgEnv	   lat_hams_r_emgAve	   lat_hams_r_emgSDp	   lat_hams_r_emgSDm	    tib_ant_l_emgRec	    tib_ant_l_emgEnv	    tib_ant_l_emgAve	    tib_ant_l_emgSDp	    tib_ant_l_emgSDm	    tib_ant_r_emgRec	    tib_ant_r_emgEnv	    tib_ant_r_emgAve	    tib_ant_r_emgSDp	    tib_ant_r_emgSDm	    gas_sol_l_emgRec	    gas_sol_l_emgEnv	    gas_sol_l_emgAve	    gas_sol_l_emgSDp	    gas_sol_l_emgSDm	    gas_sol_r_emgRec	    gas_sol_r_emgEnv	    gas_sol_r_emgAve	    gas_sol_r_emgSDp	    gas_sol_r_emgSDm	
          0.86296284	          0.06943083	          0.05886860	          0.05499703	          0.06883696	          0.04115711	          0.00517935	          0.02414039	          0.16017041	          0.35629369	         -0.03595288	          0.00710879	          0.00817773	          0.02044950	          0.03575392	          0.00514508	          0.05031943	          0.13199925	          0.19648050	          0.30415669	          0.08880430	          0.00413914	          0.01863155	          0.00297114	         -0.00090601	          0.00684829	          0.06475548	          0.25745906	          0.32122004	          0.43446153	          0.20797855	          0.06715196	          0.58366072	          0.47850931	          0.55281495	          0.40420367	          0.07973752	          0.39841608	          0.17248844	          0.34295805	          0.00201882	          0.02088135	          0.05988614	          0.04561914	          0.06141037	          0.02982790	          0.06661317	          0.33001940	          0.25198773	          0.37179386	          0.13218159	
          0.86388880	          0.03772422	          0.05909585	          0.05526371	          0.06895126	          0.04157616	          0.00481165	          0.02389204	          0.16300011	          0.36283070	         -0.03683048	          0.00271550	          0.00782455	          0.02044844	          0.03595070	          0.00494619	          0.05753708	          0.13616077	          0.19859333	          0.30681536	          0.09037131	          0.00256181	          0.01821413	          0.00296117	         -0.00060019	          0.00652253	          0.06449389	          0.26253248	          0.32466453	          0.43849695	          0.21083212	          0.14692118	          0.58700866	          0.47605580	          0.54926160	          0.40285000	          0.07753802	          0.40329249	          0.17282599	          0.34225766	          0.00339432	          0.04522211	          0.05993694	          0.04437584	          0.05985774	          0.02889395	          0.00828642	          0.32831411	          0.25355873	          0.37379667	          0.13332078	
          0.86481470	          0.03703003	          0.05933268	          0.05553769	          0.06906666	          0.04200871	          0.00050356	          0.02366439	          0.16582109	          0.36934444	         -0.03770226	          0.00261306	          0.00749790	          0.02044855	          0.03614932	          0.00474778	          0.02985442	          0.14032021	          0.20071980	          0.30949304	          0.09194657	          0.00299706	          0.01777983	          0.00298833	         -0.00023489	          0.00621154	          0.05478593	          0.26749969	          0.32809359	          0.44251838	          0.21366879	          0.04148996	          0.59028441	          0.47360867	          0.54571587	          0.40150148	          0.04928441	          0.40804742	          0.17316201	          0.34155174	          0.00477229	          0.05887682	          0.05999155	          0.04312814	          0.05829581	          0.02796048	          0.04584089	          0.32666184	          0.25513390	          0.37579460	          0.13447319	
          0.86574066	          0.02558092	          0.05957811	          0.05581876	          0.06918308	          0.04245444	          0.00431380	          0.02345750	          0.16863257	          0.37583336	         -0.03856823	          0.00415878	          0.00720062	          0.02045024	          0.03635013	          0.00455035	          0.06149857	          0.14447192	          0.20286012	          0.31218997	          0.09353027	          0.00608309	          0.01732927	          0.00305327	          0.00019055	          0.00591600	          0.05900971	          0.27235246	          0.33150682	          0.44652548	          0.21648815	          0.17321359	          0.59347522	          0.47116804	          0.54217803	          0.40015806	          0.01431700	          0.41266683	          0.17349634	          0.34084010	          0.00615257	          0.00281362	          0.06004874	          0.04187670	          0.05672563	          0.02702777	          0.03207907	          0.32507066	          0.25671318	          0.37778754	          0.13563883	
          0.86666656	          0.01623640	          0.05983110	          0.05610663	          0.06930037	          0.04291288	          0.01057997	          0.02327137	          0.17143314	          0.38229425	         -0.03942798	          0.00244308	          0.00693559	          0.02045397	          0.03655347	          0.00435446	          0.10226413	          0.14861030	          0.20501383	          0.31490560	          0.09512205	          0.00412802	          0.01686318	          0.00315667	          0.00067669	          0.00563665	          0.06334108	          0.27708277	          0.33490294	          0.45051695	          0.21928894	          0.19118505	          0.59656837	          0.46873447	          0.53864909	          0.39881986	          0.08707526	          0.41713684	          0.17382868	          0.34012276	          0.00753459	          0.03673688	          0.06010727	          0.04062254	          0.05514872	          0.02609635	          0.03139234	          0.32354836	          0.25829637	          0.37977506	          0.13681768	
          0.86759251	          0.03192845	          0.06009064	          0.05640108	          0.06941846	          0.04338370	          0.00680667	          0.02310591	          0.17422204	          0.38872544	         -0.04028137	          0.00933115	          0.00670568	          0.02046017	          0.03675973	          0.00416061	          0.06663475	          0.15272977	          0.20718107	          0.31764006	          0.09672207	         -0.00007624	          0.01638242	          0.00329917	          0.00122415	          0.00537420	          0.01328343	          0.28168282	          0.33828160	          0.45449245	          0.22207075	          0.16084799	          0.59955116	          0.46630812	          0.53512936	          0.39748687	          0.13834234	          0.42144373	          0.17415886	          0.33939955	          0.00891817	          0.02481433	          0.06016591	          0.03936635	          0.05356621	          0.02516649	          0.12327065	          0.32210236	          0.25988334	          0.38175698	          0.13800970	
          0.86851841	          0.03749058	          0.06035566	          0.05670180	          0.06953720	          0.04386640	          0.00072317	          0.02296096	          0.17699791	          0.39512400	         -0.04112817	          0.00079831	          0.00651373	          0.02046932	          0.03696924	          0.00396939	          0.06160632	          0.15682485	          0.20936140	          0.32039282	          0.09832998	          0.00210137	          0.01588798	          0.00348142	          0.00183343	          0.00512941	          0.09202121	          0.28614507	          0.34164149	          0.45845065	          0.22483232	          0.04555612	          0.60241097	          0.46388951	          0.53161982	          0.39615919	          0.06305602	          0.42557402	          0.17448664	          0.33867051	          0.01030277	          0.02688233	          0.06022343	          0.03810920	          0.05197965	          0.02423875	          0.12210407	          0.32073974	          0.26147383	          0.38373284	          0.13921483	
          0.86944437	          0.04982683	          0.06062509	          0.05700854	          0.06965649	          0.04436059	          0.00753200	          0.02283627	          0.17976002	          0.40148835	         -0.04196830	          0.00504380	          0.00636261	          0.02048190	          0.03718244	          0.00378136	          0.07299756	          0.16089015	          0.21155499	          0.32316406	          0.09994592	          0.00214415	          0.01538100	          0.00370407	          0.00250515	          0.00490300	          0.14153039	          0.29046226	          0.34498230	          0.46239129	          0.22757330	          0.11947616	          0.60513523	          0.46147865	          0.52812066	          0.39483664	          0.05329233	          0.42951445	          0.17481177	          0.33793537	          0.01168816	          0.02977692	          0.06027860	          0.03685181	          0.05039022	          0.02331339	          0.01280314	          0.31946721	          0.26306787	          0.38570258	          0.14043316	
          0.87037027	          0.05384135	          0.06089787	          0.05732097	          0.06977619	          0.04486574	          0.01224326	          0.02273151	          0.18250701	          0.40781549	         -0.04280147	          0.00024596	          0.00625511	          0.02049840	          0.03739968	          0.00359712	          0.01717493	          0.16492037	          0.21376139	          0.32595318	          0.10156960	          0.00219249	          0.01486272	          0.00396775	          0.00323975	          0.00469576	          0.01926619	          0.29462744	          0.34830278	          0.46631306	          0.23029251	          0.24389129	          0.60771149	          0.45907634	          0.52463311	          0.39351958	          0.04634142	          0.43325206	          0.17513408	          0.33719431	          0.01307385	          0.02171119	          0.06033020	          0.03559526	          0.04879956	          0.02239096	          0.01682013	          0.31829115	          0.26466501	          0.38766557	          0.14166445	
          0.87129623	          0.06215747	          0.06117290	          0.05763882	          0.06989620	          0.04538144	          0.00472319	          0.02264628	          0.18523826	          0.41410401	         -0.04362750	          0.00855684	          0.00619405	          0.02051933	          0.03762140	          0.00341726	          0.05918659	          0.16891036	          0.21598075	          0.32876039	          0.10320111	          0.00301189	          0.01433454	          0.00427313	          0.00403781	          0.00450844	          0.05905979	          0.29863400	          0.35160264	          0.47021572	          0.23298957	          0.26790257	          0.61012741	          0.45668256	          0.52115733	          0.39220779	          0.11438402	          0.43677420	          0.17545332	          0.33644700	          0.01445964	          0.02803926	          0.06037707	          0.03434034	          0.04720891	          0.02147177	          0.00680647	          0.31721759	          0.26626536	          0.38962188	          0.14290884	
          0.87222213	          0.04516980	          0.06144909	          0.05796174	          0.07001636	          0.04590712	          0.00835451	          0.02258011	          0.18795235	          0.42035092	         -0.04444622	          0.01586174	          0.00618215	          0.02054521	          0.03784801	          0.00324241	          0.07298701	          0.17285510	          0.21821256	          0.33158503	          0.10484009	          0.00173591	          0.01379799	          0.00462079	          0.00489973	          0.00434184	          0.08040116	          0.30247568	          0.35488054	          0.47409785	          0.23566324	          0.06873599	          0.61237079	          0.45429799	          0.51769446	          0.39090152	          0.14045838	          0.44006861	          0.17576924	          0.33569349	          0.01584499	          0.03071335	          0.06041801	          0.03308814	          0.04561993	          0.02055634	          0.04275578	          0.31625218	          0.26786852	          0.39157090	          0.14416614	
